<?xml version="1.0" encoding="UTF-8"?>
<svg id="Layer_1" data-name="Layer 1" xmlns="http://www.w3.org/2000/svg" version="1.1" viewBox="0 0 506.45 182.04">
  <defs>
    <style>
      .cls-1 {
        fill: #171717;
      }

      .cls-1, .cls-2 {
        stroke-width: 0px;
      }

      .cls-2 {
        fill: #231f20;
      }

      .cls-3 {
        display: none;
      }
    </style>
  </defs>
  <path class="cls-2" d="M38.22,75.21V20.61H5.68v136.8h32.54v-54.59h-2.56v2.79c0,1.42-1.14,2.56-2.56,2.56h-8.71c-1.42,0-2.56-1.14-2.56-2.56v-33.2c0-1.39,1.14-2.54,2.56-2.54h8.71c1.42,0,2.56,1.15,2.56,2.54v2.79h2.56Z"/>
  <path class="cls-2" d="M111.1,39.65c-6.96-7.05-15.53-12.13-25.74-15.26l-20.33,38.1c1.3-.39,2.74-.18,3.88.64l31.34,22.26c.62.44,1.09,1.01,1.39,1.64h-34.49c-.7-1.21-1.99-2.04-3.48-2.04-2.23,0-4.03,1.81-4.03,4.03s1.81,4.03,4.03,4.03c1.49,0,2.79-.83,3.48-2.04h34.49c-.31.62-.77,1.2-1.39,1.64l-31.34,22.28c-1.23.87-2.81,1.05-4.18.51l20.71,38.39c10.33-3.01,18.95-7.96,25.85-14.86,12.57-12.37,18.84-29.05,18.84-49.66s-6.27-37.1-19.02-49.66Z"/>
  <path class="cls-2" d="M63.1,63.52h0s21.07-39.48,21.07-39.48c-7.94-2.3-16.81-3.42-26.67-3.42h-18.06v54.59h5.01l18.63-11.69h.01Z"/>
  <path class="cls-2" d="M62.71,114.3h-.01s-18.24-11.47-18.24-11.47h-5.01v54.59h18.27c9.82,0,18.66-1.08,26.53-3.24l-21.53-39.88Z"/>
  <path class="cls-2" d="M142.09,129.92c1.86.18,3.32,1.74,3.32,3.65,0,.98-.38,1.91-1.08,2.61s-1.62,1.07-2.6,1.07-1.91-.38-2.61-1.07c-.7-.7-1.08-1.63-1.08-2.61s.38-1.92,1.08-2.61c.6-.6,1.39-.95,2.25-1.04v-27.99c-5.94,37.23-36.8,66.23-74.87,69.34v6.79h-13.62v-6.11H0v-1.39h52.87v-6.11h13.62v5.47c39.44-3.29,70.97-34.81,74.25-74.25h-5.82v-13.61h5.82c-3.28-39.45-34.81-70.96-74.25-74.25v5.83h-13.62v-5.84H0v-1.38h52.87V0h13.62v6.43c38.08,3.12,68.93,32.12,74.87,69.34v-27.64c-1.86-.18-3.33-1.74-3.33-3.65,0-1.02.41-1.94,1.08-2.61.67-.66,1.59-1.08,2.61-1.08,2.03,0,3.68,1.66,3.68,3.69,0,1.91-1.46,3.46-3.32,3.65v33.91h6.44v13.61h-6.44v34.27Z"/>
  <g>
    <path class="cls-2" d="M206.37,65.19c-4.37-2.56-9.64-3.85-15.81-3.85-6.69,0-12.57,1.65-17.63,4.95-5.06,3.3-9.02,7.77-11.86,13.4-2.85,5.63-4.27,11.94-4.27,18.94,0,7.82,1.48,14.43,4.43,19.82,2.95,5.39,6.97,9.46,12.06,12.22,5.08,2.76,10.78,4.14,17.08,4.14,5.95,0,11.52-1.17,16.69-3.52,5.17-2.35,9.39-4.85,12.65-7.5v-7.5h-1.83c-1.48,1.13-3.37,2.37-5.67,3.72-2.3,1.35-4.91,2.51-7.82,3.49-2.91.98-6.04,1.47-9.39,1.47-6.08,0-10.93-1.29-14.54-3.88-3.61-2.59-6.2-6.1-7.79-10.53-1.54-4.29-2.32-9.1-2.37-14.41h49.01c.17-.61.29-1.35.36-2.22.07-.87.12-1.75.16-2.64.04-.89.07-1.62.07-2.18,0-4.95-1.16-9.54-3.49-13.75-2.33-4.21-5.67-7.6-10.04-10.17ZM170.71,89.38c.13-1.05.29-2.1.49-3.16.61-3.19,1.64-6.14,3.1-8.83,1.46-2.69,3.44-4.86,5.96-6.49,2.52-1.63,5.69-2.44,9.52-2.44s7.12.86,9.48,2.57c2.37,1.72,4.08,4.14,5.15,7.27,1.06,3.13,1.6,6.82,1.6,11.08h-35.3Z"/>
    <path class="cls-2" d="M265.95,94.4c-1.87-.56-3.85-1.16-5.93-1.79-2.09-.63-4.15-1.25-6.19-1.86-4.26-1.3-7.41-2.83-9.45-4.56-2.04-1.74-3.06-4.24-3.06-7.5s1.32-5.55,3.98-7.14c2.65-1.59,5.95-2.38,9.91-2.38,1.96,0,3.83.17,5.64.52,1.8.35,3.44.89,4.92,1.63.61.3,1.21.73,1.79,1.27.59.54.99,1.18,1.21,1.92l2.15,6.78h7.76l-.26-16.88c-3.26-.91-6.44-1.65-9.55-2.22-3.11-.56-6.7-.85-10.79-.85-5.04,0-9.77.91-14.18,2.74-4.41,1.83-7.97,4.32-10.69,7.5-2.72,3.17-4.07,6.82-4.07,10.95,0,4.35,1.28,8.18,3.85,11.51,2.56,3.32,6.32,5.73,11.28,7.2,2.35.7,4.74,1.38,7.17,2.05,2.43.67,4.87,1.38,7.3,2.12,3.56,1,6.32,2.25,8.28,3.75,1.96,1.5,2.93,3.86,2.93,7.07,0,2.56-.8,4.64-2.41,6.22-1.61,1.59-3.61,2.75-6,3.49-2.39.74-4.78,1.11-7.17,1.11s-4.79-.33-7.2-.98c-2.41-.65-4.49-1.46-6.22-2.41-.61-.35-1.18-.83-1.73-1.43-.54-.61-.97-1.35-1.27-2.22l-2.09-6.32h-7.69v16.62c3.35,1.09,7.01,2.13,10.98,3.13,3.98,1,8.4,1.5,13.27,1.5s9.83-.91,14.37-2.74c4.54-1.83,8.26-4.43,11.15-7.82,2.89-3.39,4.33-7.45,4.33-12.19s-1.36-8.65-4.07-11.34c-2.72-2.69-6.79-4.85-12.22-6.45Z"/>
    <path class="cls-2" d="M336.67,65.19c-4.37-2.56-9.64-3.85-15.81-3.85-6.69,0-12.57,1.65-17.63,4.95-5.06,3.3-9.02,7.77-11.86,13.4-2.85,5.63-4.27,11.94-4.27,18.94,0,7.82,1.48,14.43,4.43,19.82,2.95,5.39,6.97,9.46,12.06,12.22,5.08,2.76,10.78,4.14,17.08,4.14,5.95,0,11.52-1.17,16.69-3.52,5.17-2.35,9.39-4.85,12.65-7.5v-7.5h-1.83c-1.48,1.13-3.37,2.37-5.67,3.72-2.3,1.35-4.91,2.51-7.82,3.49-2.91.98-6.04,1.47-9.39,1.47-6.08,0-10.93-1.29-14.54-3.88-3.61-2.59-6.2-6.1-7.79-10.53-1.54-4.29-2.32-9.1-2.37-14.41h49.01c.17-.61.29-1.35.36-2.22.07-.87.12-1.75.16-2.64.04-.89.07-1.62.07-2.18,0-4.95-1.16-9.54-3.49-13.75-2.33-4.21-5.67-7.6-10.04-10.17ZM301.01,89.38c.13-1.05.29-2.1.49-3.16.61-3.19,1.64-6.14,3.1-8.83,1.46-2.69,3.44-4.86,5.96-6.49,2.52-1.63,5.69-2.44,9.52-2.44s7.12.86,9.48,2.57c2.37,1.72,4.08,4.14,5.15,7.27,1.06,3.13,1.6,6.82,1.6,11.08h-35.3Z"/>
    <path class="cls-2" d="M425.1,124.84c-.5-.52-.75-1.3-.75-2.35v-37.48c0-5.56-1.01-10.08-3.03-13.56-2.02-3.48-4.73-6.03-8.12-7.66-3.39-1.63-7.15-2.45-11.28-2.45-2.48,0-4.98.27-7.5.82-2.52.54-5.06,1.64-7.63,3.29-2.56,1.65-5.15,4.17-7.76,7.56h-.85v-11.15l-22.29,3.59v4.63l7.63,3.19c.87.35,1.56.77,2.09,1.27.52.5.78,1.23.78,2.18v46.02c0,.91-.24,1.62-.72,2.12-.48.5-1.11.86-1.89,1.08l-7.95,2.61v4.76h32.27v-4.76l-6.06-2.61c-.7-.22-1.32-.58-1.86-1.08-.54-.5-.81-1.21-.81-2.12v-44.78c2.09-2.61,4.7-4.38,7.85-5.31,3.15-.93,6.14-1.4,8.96-1.4,4.3,0,7.54.76,9.71,2.28,2.17,1.52,3.63,3.73,4.37,6.62.74,2.89,1.11,6.38,1.11,10.46v31.88c0,1.04-.26,1.8-.78,2.28-.52.48-1.17.87-1.96,1.17l-6.65,2.61v4.76h32.01v-4.76l-7.04-2.61c-.74-.22-1.36-.59-1.86-1.11Z"/>
    <path class="cls-2" d="M502.76,79.92c-2.46-5.56-6.18-10.05-11.18-13.46-5-3.41-11.34-5.12-19.03-5.12-7.08,0-13.21,1.63-18.38,4.89-5.17,3.26-9.16,7.67-11.96,13.23-2.8,5.56-4.2,11.84-4.2,18.84,0,7.56,1.41,14.08,4.24,19.55,2.82,5.48,6.78,9.69,11.86,12.65,5.08,2.95,11.02,4.43,17.8,4.43,7.13,0,13.28-1.64,18.45-4.92,5.17-3.28,9.15-7.71,11.93-13.3,2.78-5.58,4.17-11.81,4.17-18.68s-1.23-12.56-3.68-18.12ZM491.19,109.16c-.61,3.33-1.64,6.4-3.1,9.22-1.46,2.83-3.42,5.11-5.9,6.84-2.48,1.74-5.61,2.61-9.39,2.61s-7.25-.96-9.88-2.87c-2.63-1.91-4.73-4.41-6.29-7.5-1.56-3.09-2.68-6.45-3.36-10.1-.67-3.65-1.01-7.24-1.01-10.76,0-3.13.31-6.34.95-9.65.63-3.3,1.67-6.35,3.13-9.16,1.46-2.8,3.42-5.06,5.9-6.78,2.48-1.72,5.58-2.57,9.32-2.57,5,0,9,1.5,11.99,4.5,3,3,5.17,6.87,6.52,11.6,1.35,4.74,2.02,9.69,2.02,14.86,0,3.17-.31,6.42-.91,9.74Z"/>
  </g>
  <line class="cls-2" x1="39.44" y1="20.61" x2="38.22" y2="20.61"/>
  <g>
    <path class="cls-2" d="M403.44,30.06c-4.84,4.24-9.39,8.68-14.03,13.07-8.77,4.84-17.15,9.72-27.52,11.5-.07-.08-.1-.12-.17-.2.57-.08,1.11-.18,1.62-.3,2.69-.62,5.23-1.74,7.43-3.24,5.53-3.97,10.67-8.28,16.09-12.34.02-.01.04-.03.05-.04,1.18-.88,1.91-1.38,2.06-1.49.03-.02.04-.03.04-.03-2.09,2.81-4.22,5.61-6.42,8.37,2.7-2.69,5.28-5.47,7.83-8.25,1.5-1.7,3.61-3.58,5.73-4.64,2.17-1.09,4.63-2.26,7.28-2.41Z"/>
    <path class="cls-2" d="M393.56,48.62c-1.12-1.66-3.41-3.25-5.64-3.82,7.99-4.24,16.44-8.97,23.65-2.31,0,0-2.8.43-6.6,1.65-1.11.36-2.13.13-2.87-.54-.89-.81-1.38-1.11-2.47-1.54,1.22.9,1.74,1.5,2.6,3.02-.78.29-1.59.61-2.43.95-1.52-1.75-2.48-2.28-4.79-2.73,1.19,1.17,1.68,1.9,2.47,3.68-1.25.52-2.55,1.08-3.92,1.64Z"/>
    <path class="cls-2" d="M412.14,41.42c-6.32-5.92-13.27-3.1-20.87.71,4.35-4.11,8.68-8.21,13.31-12.11,1.27.09,2.74.82,3.35,1.27-2.03,1.18-3.99,2.54-5.81,3.93,1.75-1.09,2.61-1.58,4.33-2.4,1.42-.68,2.7-.51,3.35.5,1.58,2.42,2.12,5.34,2.34,8.11Z"/>
    <path class="cls-2" d="M382.14,49.37c1.8.62,2.61,1.03,4.03,2.07t-.02,0c-.12.04-.65.23-1.51.49-.01,0-.01,0-.04,0-.58.17-1.31.38-2.16.59-3.62.9-7.26,1.32-10.99,1.62-2.5.17-4.99.52-7.48.81,0,0,0,0-.01,0-.53.05-1.05.1-1.59.14-.07-.07-.11-.11-.18-.18,9.05-1.32,16.5-5.12,24.18-9.29,2.32.41,4.84,1.81,6.14,3.41-.04.02-.1.04-.15.06-.21.09-.42.17-.63.26-.21.09-.41.17-.62.25-.3.12-.61.24-.91.36,0,0,0,0-.01,0-.71.28-1.39.33-1.85.18-2.12-.72-3.36-.83-6.2-.79Z"/>
  </g>
  <g>
    <path class="cls-2" d="M250.7,175.1l.16-.76,1.9-.45c.19-.05.37-.15.53-.29.16-.15.26-.33.31-.54l3.59-16.19c.05-.22.03-.41-.07-.56-.09-.15-.23-.25-.4-.29l-2-.44.18-.76h8.25c.9,0,1.85.13,2.84.37s1.92.67,2.78,1.26c.87.59,1.57,1.41,2.11,2.44.54,1.03.81,2.33.81,3.9,0,2.07-.33,3.87-.98,5.4s-1.54,2.82-2.67,3.84c-1.12,1.02-2.41,1.79-3.84,2.29-1.44.51-2.94.76-4.49.76h-9.03ZM260.17,173.9c1.34,0,2.55-.26,3.61-.79,1.06-.53,1.96-1.27,2.7-2.22.74-.96,1.31-2.08,1.7-3.39.39-1.3.59-2.74.59-4.3s-.26-2.77-.77-3.85c-.52-1.08-1.26-1.9-2.23-2.48-.97-.58-2.14-.87-3.5-.87h-2.22l-3.98,17.9h4.09Z"/>
    <path class="cls-2" d="M276.33,175.39c-.44,0-.95-.08-1.52-.25s-1.14-.46-1.69-.88-1.01-1.01-1.37-1.77-.55-1.74-.55-2.94c0-1.12.19-2.23.56-3.34s.91-2.11,1.62-3c.71-.9,1.57-1.61,2.59-2.16,1.02-.54,2.18-.81,3.46-.81.6,0,1.2.09,1.8.29.6.19,1.1.5,1.49.93.39.43.59,1.01.59,1.74,0,.87-.21,1.61-.64,2.21-.43.61-1,1.1-1.7,1.48s-1.48.66-2.32.84c-.84.18-1.68.27-2.52.27-.23,0-.52-.02-.86-.05-.33-.03-.65-.06-.93-.1-.29-.04-.48-.07-.56-.09l.1-.92c.25.02.55.03.89.04.34.01.64.01.9.01,1.78,0,3.07-.32,3.86-.96s1.19-1.58,1.19-2.81c0-.51-.2-.92-.61-1.25-.41-.33-1.02-.49-1.84-.49-.46,0-.95.21-1.47.62-.52.41-1.01.97-1.47,1.69-.46.72-.84,1.54-1.13,2.46-.29.92-.43,1.9-.43,2.93,0,.85.12,1.62.37,2.31.24.69.65,1.25,1.21,1.66.56.41,1.32.62,2.27.62,1,0,1.87-.23,2.59-.69.72-.46,1.45-.94,2.17-1.46h.35l-.35,1.42c-.58.44-1.15.84-1.69,1.21-.55.37-1.16.66-1.84.88-.68.22-1.52.33-2.53.33Z"/>
    <path class="cls-2" d="M286.87,175.49c-.89,0-1.73-.1-2.54-.31s-1.6-.45-2.39-.72l.75-3.84h.92l.21,1.69c.03.23.13.43.3.59s.34.29.5.39c.32.19.8.39,1.43.59.63.2,1.21.3,1.72.3.62,0,1.2-.09,1.73-.28.53-.18.94-.48,1.26-.88s.47-.93.47-1.59c0-.58-.22-1.03-.65-1.32-.43-.3-.96-.57-1.59-.81-.47-.18-.91-.35-1.32-.51s-.82-.32-1.21-.48c-.79-.33-1.4-.79-1.84-1.37-.44-.58-.66-1.26-.66-2.05,0-.68.17-1.31.5-1.88.33-.57.79-1.06,1.37-1.47.58-.41,1.25-.72,1.99-.95.74-.23,1.53-.34,2.36-.34s1.61.07,2.33.2c.73.14,1.41.3,2.05.48l-.74,3.87h-.96l-.16-1.71c0-.22-.1-.41-.28-.58-.17-.18-.39-.33-.64-.45-.32-.18-.69-.31-1.11-.4s-.83-.14-1.24-.14c-.83,0-1.55.21-2.18.61-.62.41-.94,1.08-.94,2,0,.51.18.94.53,1.29.35.35.78.64,1.28.87.46.21.9.39,1.33.55.43.16.77.29,1.01.39.98.41,1.75.86,2.3,1.34.55.48.83,1.14.83,1.97,0,.88-.2,1.63-.59,2.26-.39.63-.92,1.15-1.58,1.54-.66.39-1.38.69-2.17.87-.79.18-1.58.28-2.38.28Z"/>
    <path class="cls-2" d="M297.56,175.3c-.49,0-.9-.1-1.24-.3-.34-.2-.6-.45-.78-.74s-.27-.59-.27-.88c0-.32.03-.65.09-.99s.13-.71.21-1.1l1.69-7.79c.06-.26.04-.48-.06-.66-.1-.17-.28-.32-.56-.42l-1.37-.56v-.51l5.17-.98-1.94,8.85c-.06.27-.13.58-.2.93-.07.35-.14.71-.21,1.06s-.12.67-.17.94c-.04.27-.07.47-.07.6,0,.21.12.44.35.71.23.27.59.4,1.08.4.13,0,.39-.04.79-.13.4-.09.72-.18.96-.29h.26v.76c-.33.22-.73.4-1.2.57s-.93.3-1.39.39c-.46.09-.85.14-1.17.14ZM299.98,156.94c-.32,0-.62-.08-.88-.23-.27-.15-.48-.36-.64-.61-.16-.26-.23-.56-.23-.9,0-.5.17-.91.51-1.24.34-.33.75-.5,1.24-.5s.93.16,1.28.49c.35.33.52.74.52,1.23s-.17.93-.52,1.26c-.34.33-.77.5-1.28.5Z"/>
    <path class="cls-2" d="M304.33,182.04c-1.02,0-1.8-.07-2.34-.22-.54-.15-.97-.29-1.28-.44l.82-2.35h.34c.24.15.53.3.86.45s.69.29,1.07.4c.39.11.78.16,1.18.15,1.02-.03,1.8-.12,2.34-.26.54-.15.98-.41,1.35-.79.18-.21.35-.53.49-.96s.27-.95.39-1.53c.12-.58.25-1.18.37-1.8l.44-2.03-.03.03c-.67.77-1.31,1.33-1.93,1.67-.61.34-1.16.55-1.65.64-.49.08-.88.13-1.18.13-.98,0-1.82-.24-2.49-.73-.68-.49-1.19-1.15-1.53-1.99-.35-.84-.52-1.78-.52-2.83,0-1.16.19-2.29.57-3.39.38-1.1.92-2.1,1.62-2.99.7-.89,1.54-1.6,2.5-2.13.97-.53,2.05-.79,3.25-.79.82,0,1.49.14,2.02.43.53.29.95.62,1.25.99l.76-1.3h2.7c-.13.28-.3.72-.53,1.32-.23.6-.4,1.16-.5,1.69l-2.16,11.25c-.23,1.22-.59,2.23-1.07,3.04s-1.07,1.5-1.76,2.08c-.82.68-1.65,1.23-2.5,1.66-.85.42-1.79.64-2.83.64ZM307.12,173.39c.43,0,.96-.12,1.61-.35.64-.23,1.22-.64,1.73-1.21l1.88-9.36c-.25-.16-.59-.28-1.02-.37-.42-.09-.85-.15-1.26-.19s-.74-.06-.96-.06c-.9,0-1.68.22-2.34.66s-1.22,1.02-1.66,1.74c-.44.72-.77,1.5-.99,2.34s-.33,1.67-.33,2.47.11,1.54.33,2.19.57,1.17,1.07,1.55c.49.39,1.14.58,1.95.58Z"/>
    <path class="cls-2" d="M327.04,175.3c-.47,0-.87-.1-1.2-.3-.33-.2-.59-.45-.77-.74s-.27-.59-.27-.88c0-.21.03-.52.09-.92.06-.4.13-.78.22-1.15l1.08-4.59c.11-.43.21-.89.31-1.38.1-.49.15-.93.15-1.31,0-.64-.2-1.14-.6-1.5-.4-.35-1.05-.53-1.94-.53-.55,0-1.15.11-1.83.34-.67.22-1.26.6-1.75,1.12l-1.97,8.88c-.08.46-.12.96-.13,1.5-.01.54-.01.96-.01,1.26h-2.97l2.59-11.69c.05-.24.02-.45-.09-.61-.11-.17-.31-.31-.59-.42l-1.31-.51v-.51l4.98-.98-.44,2.32h.03c.69-.79,1.33-1.35,1.91-1.69.58-.34,1.13-.55,1.66-.63.53-.08,1.04-.12,1.55-.12.98,0,1.82.26,2.5.79.68.53,1.02,1.35,1.02,2.48,0,.24-.02.5-.05.78-.03.27-.08.53-.14.77l-1.15,4.88c-.13.55-.24,1.12-.33,1.7-.09.58-.14.95-.14,1.1,0,.22.11.46.33.73.22.27.58.41,1.07.41.13,0,.35-.04.68-.12s.61-.18.86-.29h.26v.76c-.33.2-.73.39-1.19.55-.46.16-.91.29-1.35.37-.43.09-.79.13-1.06.13Z"/>
    <path class="cls-2" d="M334.73,175.1l.17-.76,1.84-.45c.19-.05.37-.15.53-.29s.26-.33.31-.54l3.59-16.19c.05-.22.03-.41-.07-.56-.09-.15-.23-.25-.4-.29l-2-.44.16-.76h14.99l-1.07,4.78h-.95l-.28-3.04c-.02-.16-.06-.28-.13-.38-.06-.1-.18-.15-.36-.15h-7.05l-3.8,17.02c-.04.21,0,.4.09.55s.24.25.42.28l2.22.45-.18.76h-8.05ZM341.73,165.37l.26-1.21h5.01c.19,0,.35-.05.45-.15.11-.1.2-.21.28-.35l1.33-2.45h.8l-1.58,7.11h-.82l-.23-2.44c-.02-.15-.06-.27-.12-.37-.06-.1-.19-.15-.39-.15h-5Z"/>
    <path class="cls-2" d="M354.27,175.3c-.49,0-.9-.1-1.24-.3-.34-.2-.6-.45-.78-.74s-.27-.59-.27-.88c0-.32.03-.65.09-.99s.13-.71.21-1.1l1.69-7.79c.06-.26.04-.48-.06-.66-.1-.17-.28-.32-.56-.42l-1.37-.56v-.51l5.17-.98-1.94,8.85c-.06.27-.13.58-.2.93-.07.35-.14.71-.21,1.06s-.12.67-.17.94c-.04.27-.07.47-.07.6,0,.21.12.44.35.71.23.27.59.4,1.08.4.13,0,.39-.04.79-.13.4-.09.72-.18.96-.29h.26v.76c-.33.22-.73.4-1.2.57s-.93.3-1.39.39c-.46.09-.85.14-1.17.14ZM356.7,156.94c-.32,0-.62-.08-.88-.23-.27-.15-.48-.36-.64-.61-.16-.26-.23-.56-.23-.9,0-.5.17-.91.51-1.24.34-.33.75-.5,1.24-.5s.93.16,1.28.49c.35.33.52.74.52,1.23s-.17.93-.52,1.26c-.34.33-.77.5-1.28.5Z"/>
    <path class="cls-2" d="M361.12,175.1h-2.98l2.19-10.45c.05-.21.09-.45.11-.69s.04-.44.04-.58c0-.26-.03-.47-.13-.61-.1-.15-.29-.28-.57-.4l-1.3-.51v-.51l5-.98-.6,3.24h.03c.46-.54.95-1.06,1.49-1.57s1.11-.94,1.73-1.28,1.26-.51,1.93-.51c.56,0,.96.04,1.23.13s.55.21.86.35l-.66,3.46h-.98l-.18-1.21c-.03-.19-.22-.34-.58-.44-.35-.1-.67-.15-.96-.15-.48,0-.94.08-1.38.25s-.87.41-1.28.72c-.41.31-.83.68-1.25,1.12l-1.65,7.85c-.03.22-.05.51-.07.88s-.02.71-.03,1.06c0,.35,0,.62,0,.83Z"/>
    <path class="cls-2" d="M369.25,175.1l2.6-11.69c.05-.24.01-.45-.1-.61s-.32-.31-.6-.42l-1.3-.51v-.51l5.01-.98-.45,2.32h.03c.68-.71,1.31-1.24,1.88-1.58s1.11-.57,1.61-.69c.5-.12.98-.17,1.44-.17.82,0,1.48.13,1.99.4.51.27.89.64,1.15,1.12.26.48.42,1.05.48,1.7l-1.97,8.85c-.09.42-.14.91-.15,1.47s-.01.99-.01,1.29h-2.95l2.05-9.16c.08-.35.14-.7.2-1.04.05-.34.08-.65.08-.93,0-.62-.18-1.11-.55-1.45-.37-.34-.98-.52-1.83-.52-.55,0-1.14.11-1.78.34s-1.21.6-1.71,1.12l-1.99,8.88c-.08.42-.12.91-.13,1.47s-.01.99-.01,1.29h-2.95ZM389.23,175.3c-.48,0-.88-.1-1.21-.3-.33-.2-.58-.45-.76-.74-.18-.3-.26-.59-.26-.88,0-.21.03-.51.08-.9s.12-.78.21-1.17l1.27-5.36c.08-.35.14-.69.19-1.02s.07-.63.07-.9c0-.63-.19-1.13-.56-1.49-.38-.36-.99-.54-1.85-.54-.54,0-1.14.13-1.82.38-.68.25-1.28.69-1.81,1.3l-.17-.41c.81-.95,1.53-1.63,2.16-2.05s1.21-.69,1.72-.8c.51-.11.99-.17,1.44-.17.98,0,1.81.27,2.48.8.67.54,1.01,1.38,1.01,2.53,0,.22-.02.46-.05.72-.03.26-.08.51-.14.77l-.94,4.03c-.1.42-.2.88-.31,1.39-.11.51-.2.98-.27,1.4-.07.42-.11.71-.11.85,0,.22.11.46.34.73s.58.41,1.07.41c.13,0,.35-.04.69-.12.33-.08.62-.18.86-.29h.26v.76c-.34.2-.74.39-1.2.55-.46.16-.91.29-1.35.37-.43.09-.78.13-1.04.13Z"/>
    <path class="cls-2" d="M404,153.17h1.59v28.02h-1.59v-28.02Z"/>
    <path class="cls-2" d="M422.06,175.57c-.95,0-2.01-.16-3.19-.48-1.18-.32-2.26-.66-3.24-1.02l1.07-5.23h.94l.19,2.97c.02.19.12.38.3.56s.41.36.68.53c.43.26.92.5,1.48.7.56.21,1.09.37,1.6.48s.88.18,1.13.18c.94,0,1.8-.18,2.56-.53.76-.35,1.37-.85,1.82-1.51.45-.66.67-1.44.67-2.36,0-.73-.19-1.34-.58-1.82s-.93-.89-1.62-1.23c-.7-.34-1.38-.65-2.03-.92-.65-.27-1.32-.57-2-.91-.61-.28-1.16-.63-1.63-1.05-.47-.42-.84-.9-1.1-1.44-.26-.54-.39-1.13-.39-1.77,0-.88.2-1.7.6-2.46.4-.76.95-1.44,1.65-2.01.7-.58,1.5-1.04,2.41-1.37.9-.33,1.86-.5,2.88-.5s2.06.13,3.1.39c1.05.26,1.95.53,2.72.81l-.98,4.83h-.94l-.31-2.76c-.02-.22-.16-.43-.43-.64-.27-.21-.59-.41-.97-.59-.3-.15-.63-.27-.97-.38-.35-.11-.69-.19-1.02-.25-.33-.06-.63-.09-.91-.09-1.29,0-2.32.37-3.09,1.11-.78.74-1.16,1.69-1.16,2.86,0,.67.17,1.29.5,1.87.33.58.94,1.06,1.83,1.46.66.29,1.31.57,1.95.85s1.33.6,2.07.98c.51.25,1,.56,1.47.91s.87.79,1.18,1.31c.32.52.48,1.16.48,1.93,0,.86-.19,1.68-.58,2.47-.38.79-.94,1.5-1.68,2.12-.73.62-1.64,1.12-2.72,1.47-1.08.36-2.32.54-3.72.54Z"/>
    <path class="cls-2" d="M435.3,175.36c-.89,0-1.64-.21-2.23-.63-.59-.42-.88-.99-.88-1.71,0-.17.03-.42.09-.73.06-.31.13-.64.2-.98.07-.35.13-.64.18-.88l1.81-8.47h-2.38v-.78c.62-.08,1.15-.18,1.58-.31.43-.13.79-.35,1.07-.65.28-.3.49-.75.65-1.34l.48-1.81,2.25-.47-2.76,12.84c-.04.22-.1.5-.18.86-.08.35-.15.71-.21,1.07-.06.35-.09.63-.09.81,0,.35.13.64.38.86s.55.38.88.47c.33.1.62.15.88.15.18,0,.43-.03.75-.1.32-.06.63-.14.94-.23s.54-.17.69-.23h.25v.74c-.19.13-.53.31-1.02.56s-1.02.47-1.61.67c-.59.2-1.17.3-1.71.3ZM436.73,161.95l.28-1.2h5.01l-.29,1.2h-5Z"/>
    <path class="cls-2" d="M444.92,175.36c-1.01,0-1.86-.26-2.54-.78-.68-.51-1.02-1.35-1.02-2.5,0-.23.01-.47.04-.72s.07-.53.13-.81l1.53-7.13c.05-.24.03-.45-.06-.62-.09-.17-.27-.32-.56-.43l-1.3-.51v-.51l5.14-.98-2.07,9.34c-.07.33-.13.67-.18,1.01s-.08.64-.08.91c0,.64.2,1.14.59,1.49s1.03.53,1.92.53c.57,0,1.18-.11,1.86-.34s1.27-.59,1.78-1.11l1.94-8.79c.09-.4.13-.88.14-1.45,0-.57,0-1.01,0-1.31h2.95l-2.05,9.32c-.12.53-.22,1.06-.32,1.59-.1.54-.15.91-.15,1.14,0,.21.11.47.33.77.22.3.57.45,1.06.45.13,0,.37-.04.72-.13.35-.08.65-.18.89-.29h.26v.76c-.51.31-1.09.56-1.75.76-.66.19-1.29.29-1.91.29-.51,0-.91-.12-1.22-.37s-.53-.56-.67-.92c-.14-.37-.24-.72-.28-1.07h-.03c-.69.79-1.35,1.35-1.97,1.69s-1.2.54-1.73.62-1,.12-1.41.12Z"/>
    <path class="cls-2" d="M461.73,173.68c.43,0,.94-.13,1.54-.37s1.13-.63,1.59-1.15l2.35-10.65,1.18-5.52c.06-.26.04-.47-.06-.63s-.28-.29-.56-.41l-1.36-.54v-.51l5.13-.96-3.48,15.97c-.1.44-.2.91-.31,1.42-.11.51-.2.98-.28,1.4-.08.42-.12.74-.12.96s.11.47.33.77c.22.3.57.45,1.06.45.14,0,.38-.04.72-.13.35-.08.64-.18.88-.29h.26v.76c-.51.31-1.09.56-1.75.76-.66.19-1.29.29-1.89.29-.51,0-.91-.12-1.21-.36-.3-.24-.53-.54-.68-.91-.15-.37-.25-.74-.3-1.11h-.03c-.59.67-1.14,1.18-1.63,1.53-.5.35-.98.59-1.45.72-.47.13-.96.19-1.49.19-.97,0-1.81-.24-2.49-.71-.69-.47-1.21-1.12-1.56-1.95-.36-.83-.53-1.77-.53-2.83,0-1.18.19-2.33.56-3.47.38-1.14.91-2.17,1.61-3.1.7-.93,1.53-1.67,2.51-2.22.98-.55,2.08-.82,3.29-.82.62,0,1.29.13,2.01.38.72.25,1.26.63,1.64,1.12l-.18.72c-.23-.15-.54-.26-.91-.35-.38-.09-.77-.16-1.19-.2-.42-.05-.82-.07-1.2-.07-.92,0-1.71.23-2.39.68s-1.24,1.06-1.68,1.81-.77,1.59-.99,2.49c-.22.9-.33,1.81-.33,2.72,0,.78.12,1.48.35,2.11.23.63.6,1.12,1.1,1.48.5.36,1.14.54,1.91.54Z"/>
    <path class="cls-2" d="M473.7,175.3c-.49,0-.9-.1-1.24-.3-.34-.2-.6-.45-.78-.74s-.27-.59-.27-.88c0-.32.03-.65.09-.99s.13-.71.21-1.1l1.69-7.79c.06-.26.04-.48-.06-.66-.1-.17-.28-.32-.56-.42l-1.37-.56v-.51l5.17-.98-1.94,8.85c-.06.27-.13.58-.2.93-.07.35-.14.71-.21,1.06s-.12.67-.17.94c-.04.27-.07.47-.07.6,0,.21.12.44.35.71.23.27.59.4,1.08.4.13,0,.39-.04.79-.13.4-.09.72-.18.96-.29h.26v.76c-.33.22-.73.4-1.2.57s-.93.3-1.39.39c-.46.09-.85.14-1.17.14ZM476.12,156.94c-.32,0-.62-.08-.88-.23-.27-.15-.48-.36-.64-.61-.16-.26-.23-.56-.23-.9,0-.5.17-.91.51-1.24.34-.33.75-.5,1.24-.5s.93.16,1.28.49c.35.33.52.74.52,1.23s-.17.93-.52,1.26c-.34.33-.77.5-1.28.5Z"/>
    <path class="cls-2" d="M482.92,175.48c-1.2,0-2.22-.25-3.07-.74-.85-.49-1.51-1.18-1.96-2.07-.45-.89-.68-1.94-.68-3.15s.2-2.42.59-3.53c.39-1.11.95-2.09,1.66-2.95s1.54-1.53,2.5-2.03c.95-.5,1.99-.74,3.11-.74,1.34,0,2.43.27,3.27.82.84.55,1.45,1.28,1.83,2.19.39.91.58,1.91.58,3,0,1.22-.2,2.38-.6,3.48-.4,1.11-.95,2.09-1.66,2.94s-1.53,1.53-2.48,2.03-1.98.74-3.09.74ZM483.1,174.41c.64,0,1.22-.17,1.74-.52.52-.34.97-.81,1.37-1.4.4-.59.73-1.25,1-1.99.27-.74.47-1.5.61-2.29.14-.79.21-1.55.21-2.28,0-.85-.1-1.62-.29-2.32-.19-.7-.52-1.25-.98-1.67-.46-.41-1.1-.62-1.91-.62-.67,0-1.28.18-1.81.55-.54.37-1,.86-1.39,1.48-.39.61-.72,1.3-.97,2.05-.25.75-.44,1.52-.57,2.29-.13.77-.19,1.49-.19,2.15,0,.79.09,1.53.27,2.23.18.7.5,1.26.96,1.69s1.11.65,1.94.65Z"/>
  </g>
  <g class="cls-3">
    <g>
      <g>
        <path class="cls-1" d="M206.37,67.19c-4.37-2.56-9.64-3.85-15.81-3.85-6.69,0-12.57,1.65-17.63,4.95-5.06,3.3-9.02,7.77-11.86,13.4-2.85,5.63-4.27,11.94-4.27,18.94,0,7.82,1.48,14.43,4.43,19.82,2.95,5.39,6.97,9.46,12.06,12.22,5.08,2.76,10.78,4.14,17.08,4.14,5.95,0,11.52-1.17,16.69-3.52,5.17-2.35,9.39-4.85,12.65-7.5v-7.5h-1.83c-1.48,1.13-3.37,2.37-5.67,3.72-2.3,1.35-4.91,2.51-7.82,3.49-2.91.98-6.04,1.47-9.39,1.47-6.08,0-10.93-1.29-14.54-3.88-3.61-2.59-6.2-6.1-7.79-10.53-1.54-4.29-2.32-9.1-2.37-14.41h49.01c.17-.61.29-1.35.36-2.22.07-.87.12-1.75.16-2.64.04-.89.07-1.62.07-2.18,0-4.95-1.16-9.54-3.49-13.75-2.33-4.21-5.67-7.6-10.04-10.17ZM170.71,91.38c.13-1.05.29-2.1.49-3.16.61-3.19,1.64-6.14,3.1-8.83,1.46-2.69,3.44-4.86,5.96-6.49,2.52-1.63,5.69-2.44,9.52-2.44s7.12.86,9.48,2.57c2.37,1.72,4.08,4.14,5.15,7.27,1.06,3.13,1.6,6.82,1.6,11.08h-35.3Z"/>
        <path class="cls-1" d="M265.95,96.4c-1.87-.56-3.85-1.16-5.93-1.79-2.09-.63-4.15-1.25-6.19-1.86-4.26-1.3-7.41-2.83-9.45-4.56-2.04-1.74-3.06-4.24-3.06-7.5s1.32-5.55,3.98-7.14c2.65-1.59,5.95-2.38,9.91-2.38,1.96,0,3.83.17,5.64.52,1.8.35,3.44.89,4.92,1.63.61.3,1.21.73,1.79,1.27.59.54.99,1.18,1.21,1.92l2.15,6.78h7.76l-.26-16.88c-3.26-.91-6.44-1.65-9.55-2.22-3.11-.56-6.7-.85-10.79-.85-5.04,0-9.77.91-14.18,2.74-4.41,1.83-7.97,4.32-10.69,7.5-2.72,3.17-4.07,6.82-4.07,10.95,0,4.35,1.28,8.18,3.85,11.51,2.56,3.32,6.32,5.73,11.28,7.2,2.35.7,4.74,1.38,7.17,2.05,2.43.67,4.87,1.38,7.3,2.12,3.56,1,6.32,2.25,8.28,3.75,1.96,1.5,2.93,3.86,2.93,7.07,0,2.56-.8,4.64-2.41,6.22-1.61,1.59-3.61,2.75-6,3.49-2.39.74-4.78,1.11-7.17,1.11s-4.79-.33-7.2-.98c-2.41-.65-4.49-1.46-6.22-2.41-.61-.35-1.18-.83-1.73-1.43-.54-.61-.97-1.35-1.27-2.22l-2.09-6.32h-7.69v16.62c3.35,1.09,7.01,2.13,10.98,3.13,3.98,1,8.4,1.5,13.27,1.5s9.83-.91,14.37-2.74c4.54-1.83,8.26-4.43,11.15-7.82,2.89-3.39,4.33-7.45,4.33-12.19s-1.36-8.65-4.07-11.34c-2.72-2.69-6.79-4.85-12.22-6.45Z"/>
        <path class="cls-1" d="M336.67,67.19c-4.37-2.56-9.64-3.85-15.81-3.85-6.69,0-12.57,1.65-17.63,4.95-5.06,3.3-9.02,7.77-11.86,13.4-2.85,5.63-4.27,11.94-4.27,18.94,0,7.82,1.48,14.43,4.43,19.82,2.95,5.39,6.97,9.46,12.06,12.22,5.08,2.76,10.78,4.14,17.08,4.14,5.95,0,11.52-1.17,16.69-3.52,5.17-2.35,9.39-4.85,12.65-7.5v-7.5h-1.83c-1.48,1.13-3.37,2.37-5.67,3.72-2.3,1.35-4.91,2.51-7.82,3.49-2.91.98-6.04,1.47-9.39,1.47-6.08,0-10.93-1.29-14.54-3.88-3.61-2.59-6.2-6.1-7.79-10.53-1.54-4.29-2.32-9.1-2.37-14.41h49.01c.17-.61.29-1.35.36-2.22.07-.87.12-1.75.16-2.64.04-.89.07-1.62.07-2.18,0-4.95-1.16-9.54-3.49-13.75-2.33-4.21-5.67-7.6-10.04-10.17ZM301.01,91.38c.13-1.05.29-2.1.49-3.16.61-3.19,1.64-6.14,3.1-8.83,1.46-2.69,3.44-4.86,5.96-6.49,2.52-1.63,5.69-2.44,9.52-2.44s7.12.86,9.48,2.57c2.37,1.72,4.08,4.14,5.15,7.27,1.06,3.13,1.6,6.82,1.6,11.08h-35.3Z"/>
        <path class="cls-1" d="M425.1,126.84c-.5-.52-.75-1.3-.75-2.35v-37.48c0-5.56-1.01-10.08-3.03-13.56-2.02-3.48-4.73-6.03-8.12-7.66-3.39-1.63-7.15-2.45-11.28-2.45-2.48,0-4.98.27-7.5.82-2.52.54-5.06,1.64-7.63,3.29-2.56,1.65-5.15,4.17-7.76,7.56h-.85v-11.15l-22.29,3.59v4.63l7.63,3.19c.87.35,1.56.77,2.09,1.27.52.5.78,1.23.78,2.18v46.02c0,.91-.24,1.62-.72,2.12-.48.5-1.11.86-1.89,1.08l-7.95,2.61v4.76h32.27v-4.76l-6.06-2.61c-.7-.22-1.32-.58-1.86-1.08-.54-.5-.81-1.21-.81-2.12v-44.78c2.09-2.61,4.7-4.38,7.85-5.31,3.15-.93,6.14-1.4,8.96-1.4,4.3,0,7.54.76,9.71,2.28,2.17,1.52,3.63,3.73,4.37,6.62.74,2.89,1.11,6.38,1.11,10.46v31.88c0,1.04-.26,1.8-.78,2.28-.52.48-1.17.87-1.96,1.17l-6.65,2.61v4.76h32.01v-4.76l-7.04-2.61c-.74-.22-1.36-.59-1.86-1.11Z"/>
        <path class="cls-1" d="M502.76,81.92c-2.46-5.56-6.18-10.05-11.18-13.46-5-3.41-11.34-5.12-19.03-5.12-7.08,0-13.21,1.63-18.38,4.89-5.17,3.26-9.16,7.67-11.96,13.23-2.8,5.56-4.2,11.84-4.2,18.84,0,7.56,1.41,14.08,4.24,19.55,2.82,5.48,6.78,9.69,11.86,12.65,5.08,2.95,11.02,4.43,17.8,4.43,7.13,0,13.28-1.64,18.45-4.92,5.17-3.28,9.15-7.71,11.93-13.3,2.78-5.58,4.17-11.81,4.17-18.68s-1.23-12.56-3.68-18.12ZM491.19,111.16c-.61,3.33-1.64,6.4-3.1,9.22-1.46,2.83-3.42,5.11-5.9,6.84-2.48,1.74-5.61,2.61-9.39,2.61s-7.25-.96-9.88-2.87c-2.63-1.91-4.73-4.41-6.29-7.5-1.56-3.09-2.68-6.45-3.36-10.1-.67-3.65-1.01-7.24-1.01-10.76,0-3.13.31-6.34.95-9.65.63-3.3,1.67-6.35,3.13-9.16,1.46-2.8,3.42-5.06,5.9-6.78,2.48-1.72,5.58-2.57,9.32-2.57,5,0,9,1.5,11.99,4.5,3,3,5.17,6.87,6.52,11.6,1.35,4.74,2.02,9.69,2.02,14.86,0,3.17-.31,6.42-.91,9.74Z"/>
        <g>
          <path class="cls-1" d="M403.73,30.83c-4.84,4.24-9.39,8.68-14.03,13.07-8.77,4.84-17.15,9.72-27.52,11.5-.07-.08-.1-.12-.17-.2.57-.08,1.11-.18,1.62-.3,2.69-.62,5.23-1.74,7.43-3.24,5.53-3.97,10.67-8.28,16.09-12.34.02-.01.04-.03.05-.04,1.18-.88,1.91-1.38,2.06-1.49.03-.02.04-.03.04-.03-2.09,2.81-4.22,5.61-6.42,8.37,2.7-2.69,5.28-5.47,7.83-8.25,1.5-1.7,3.61-3.58,5.73-4.64,2.17-1.09,4.63-2.26,7.28-2.41Z"/>
          <path class="cls-1" d="M393.86,49.39c-1.12-1.66-3.41-3.25-5.64-3.82,7.99-4.24,16.44-8.97,23.65-2.31,0,0-2.8.43-6.6,1.65-1.11.36-2.13.13-2.87-.54-.89-.81-1.38-1.11-2.47-1.54,1.22.9,1.74,1.5,2.6,3.02-.78.29-1.59.61-2.43.95-1.52-1.75-2.48-2.28-4.79-2.73,1.19,1.17,1.68,1.9,2.47,3.68-1.25.52-2.55,1.08-3.92,1.64Z"/>
          <path class="cls-1" d="M412.43,42.19c-6.32-5.92-13.27-3.1-20.87.71,4.35-4.11,8.68-8.21,13.31-12.11,1.27.09,2.74.82,3.35,1.27-2.03,1.18-3.99,2.54-5.81,3.93,1.75-1.09,2.61-1.58,4.33-2.4,1.42-.68,2.7-.51,3.35.5,1.58,2.42,2.12,5.34,2.34,8.11Z"/>
          <path class="cls-1" d="M382.43,50.14c1.8.62,2.61,1.03,4.03,2.07t-.02,0c-.12.04-.65.23-1.51.49-.01,0-.01,0-.04,0-.58.17-1.31.38-2.16.59-3.62.9-7.26,1.32-10.99,1.62-2.5.17-4.99.52-7.48.81,0,0,0,0-.01,0-.53.05-1.05.1-1.59.14-.07-.07-.11-.11-.18-.18,9.05-1.32,16.5-5.12,24.18-9.29,2.32.41,4.84,1.81,6.14,3.41-.04.02-.1.04-.15.06-.21.09-.42.17-.63.26-.21.09-.41.17-.62.25-.3.12-.61.24-.91.36,0,0,0,0-.01,0-.71.28-1.39.33-1.85.18-2.12-.72-3.36-.83-6.2-.79Z"/>
        </g>
      </g>
      <g>
        <path class="cls-1" d="M38.22,77.2V22.61H5.68v136.8h32.54v-54.59h-2.56v2.79c0,1.42-1.14,2.56-2.56,2.56h-8.71c-1.42,0-2.56-1.14-2.56-2.56v-33.2c0-1.39,1.14-2.54,2.56-2.54h8.71c1.42,0,2.56,1.15,2.56,2.54v2.79h2.56Z"/>
        <path class="cls-1" d="M111.1,41.65c-6.96-7.05-15.53-12.13-25.74-15.26l-20.33,38.1c1.3-.39,2.74-.18,3.88.64l31.34,22.26c.62.44,1.09,1.01,1.39,1.64h-34.49c-.7-1.21-1.99-2.04-3.48-2.04-2.23,0-4.03,1.81-4.03,4.03s1.81,4.03,4.03,4.03c1.49,0,2.79-.83,3.48-2.04h34.49c-.31.62-.77,1.2-1.39,1.64l-31.34,22.28c-1.23.87-2.81,1.05-4.18.51l20.71,38.39c10.33-3.01,18.95-7.96,25.85-14.86,12.57-12.37,18.84-29.05,18.84-49.66s-6.27-37.1-19.02-49.66Z"/>
        <path class="cls-1" d="M63.1,65.51h0s21.07-39.48,21.07-39.48c-7.94-2.3-16.81-3.42-26.67-3.42h-18.06v54.59h5.01l18.63-11.69h.01Z"/>
        <path class="cls-1" d="M62.71,116.29h-.01s-18.24-11.47-18.24-11.47h-5.01v54.59h18.27c9.82,0,18.66-1.08,26.53-3.24l-21.53-39.88Z"/>
        <path class="cls-1" d="M142.09,131.91c1.86.18,3.32,1.74,3.32,3.65,0,.98-.38,1.91-1.08,2.61-.7.7-1.62,1.07-2.6,1.07s-1.91-.38-2.61-1.07c-.7-.7-1.08-1.63-1.08-2.61s.38-1.92,1.08-2.61c.6-.6,1.39-.95,2.25-1.04v-27.99c-5.94,37.23-36.8,66.23-74.87,69.34v6.79h-13.62v-6.11H0v-1.39h52.87v-6.11h13.62v5.47c39.44-3.29,70.97-34.81,74.25-74.25h-5.82v-13.61h5.82c-3.28-39.45-34.81-70.96-74.25-74.25v5.83h-13.62v-5.84H0v-1.38h52.87V1.99h13.62v6.43c38.08,3.12,68.93,32.12,74.87,69.34v-27.64c-1.86-.18-3.33-1.74-3.33-3.65,0-1.02.41-1.94,1.08-2.61.67-.66,1.59-1.08,2.61-1.08,2.03,0,3.68,1.66,3.68,3.69,0,1.91-1.46,3.46-3.32,3.65v33.91h6.44v13.61h-6.44v34.27Z"/>
        <line class="cls-1" x1="39.44" y1="22.61" x2="38.22" y2="22.61"/>
      </g>
    </g>
    <g>
      <path class="cls-1" d="M259.6,168.79l.16-.76,1.9-.45c.19-.05.37-.15.53-.29.16-.15.27-.33.31-.54l3.59-16.19c.05-.22.03-.41-.07-.56-.09-.15-.23-.25-.4-.29l-2-.44.17-.76h8.25c.91,0,1.85.12,2.84.37.99.25,1.92.67,2.78,1.26.87.59,1.57,1.41,2.11,2.44s.81,2.33.81,3.9c0,2.07-.33,3.87-.98,5.41-.65,1.54-1.54,2.82-2.67,3.84-1.13,1.02-2.41,1.79-3.84,2.29s-2.93.76-4.49.76h-9.03ZM269.06,167.6c1.34,0,2.55-.26,3.61-.79s1.96-1.27,2.7-2.22c.74-.95,1.31-2.08,1.7-3.39.39-1.3.59-2.74.59-4.29s-.26-2.77-.77-3.85-1.26-1.9-2.23-2.48c-.97-.58-2.14-.87-3.5-.87h-2.22l-3.97,17.9h4.09Z"/>
      <path class="cls-1" d="M285.23,169.09c-.44,0-.94-.08-1.52-.25-.57-.17-1.14-.46-1.69-.88s-1.01-1.01-1.37-1.77c-.37-.76-.55-1.74-.55-2.94,0-1.12.19-2.23.56-3.34.38-1.11.92-2.11,1.62-3,.71-.9,1.57-1.61,2.59-2.16,1.02-.54,2.18-.81,3.46-.81.6,0,1.21.09,1.8.28.6.19,1.1.5,1.49.93.39.43.59,1.01.59,1.74,0,.87-.21,1.61-.64,2.21-.43.61-1,1.1-1.7,1.48-.71.38-1.48.66-2.32.84s-1.68.27-2.52.27c-.23,0-.52-.01-.85-.04-.34-.03-.65-.06-.94-.1-.29-.04-.47-.07-.56-.09l.1-.92c.25.02.55.03.89.04.34,0,.64.01.91.01,1.78,0,3.07-.32,3.86-.96s1.19-1.58,1.19-2.81c0-.51-.2-.92-.61-1.25-.41-.33-1.02-.49-1.84-.49-.46,0-.95.2-1.47.61-.52.41-1.01.97-1.48,1.69-.46.72-.84,1.54-1.13,2.46-.29.92-.43,1.9-.43,2.93,0,.85.12,1.62.37,2.31.24.69.64,1.24,1.2,1.66.56.41,1.32.62,2.27.62,1,0,1.87-.23,2.59-.69.73-.46,1.45-.94,2.17-1.46h.35l-.35,1.42c-.58.44-1.15.84-1.69,1.21-.55.37-1.16.66-1.84.88-.68.22-1.52.33-2.53.33Z"/>
      <path class="cls-1" d="M295.77,169.19c-.89,0-1.73-.1-2.53-.31-.8-.21-1.6-.45-2.39-.72l.74-3.84h.92l.2,1.7c.03.23.13.43.3.59.17.16.34.29.5.39.32.2.8.39,1.43.59.63.2,1.21.3,1.72.3.62,0,1.2-.09,1.72-.28s.94-.48,1.26-.88c.31-.4.47-.93.47-1.59,0-.58-.22-1.03-.65-1.32-.43-.3-.96-.57-1.59-.81-.47-.18-.91-.36-1.32-.51-.41-.16-.82-.32-1.21-.48-.79-.33-1.4-.79-1.84-1.37-.44-.58-.66-1.26-.66-2.05,0-.68.17-1.31.5-1.88.33-.57.79-1.06,1.37-1.47s1.25-.73,1.99-.95c.74-.22,1.53-.34,2.36-.34s1.6.07,2.33.2,1.41.3,2.05.48l-.74,3.87h-.96l-.16-1.71c0-.21-.1-.41-.28-.58-.18-.17-.39-.33-.64-.45-.32-.18-.69-.31-1.11-.4-.42-.09-.83-.14-1.24-.14-.83,0-1.55.2-2.18.61-.62.41-.94,1.08-.94,2,0,.51.18.94.53,1.29s.78.64,1.28.87c.46.2.9.39,1.33.55s.76.29,1.01.39c.98.41,1.75.85,2.3,1.34s.83,1.14.83,1.96c0,.88-.2,1.63-.59,2.26-.39.63-.92,1.15-1.58,1.54-.66.39-1.38.68-2.17.87-.79.18-1.58.28-2.38.28Z"/>
      <path class="cls-1" d="M306.45,169c-.49,0-.9-.1-1.24-.3-.34-.2-.6-.45-.78-.74-.18-.3-.27-.59-.27-.88,0-.32.03-.65.1-.99.06-.34.13-.71.21-1.1l1.69-7.79c.06-.26.04-.48-.06-.66-.1-.17-.28-.32-.56-.42l-1.37-.56v-.51l5.17-.98-1.94,8.85c-.06.27-.12.58-.2.94-.07.35-.14.7-.21,1.06-.07.36-.12.67-.17.94s-.07.47-.07.6c0,.2.12.44.35.71.23.27.59.4,1.08.4.13,0,.39-.04.79-.13.4-.09.72-.18.96-.29h.26v.76c-.33.21-.73.4-1.2.57s-.93.29-1.39.39c-.46.09-.85.14-1.17.14ZM308.88,150.64c-.32,0-.62-.07-.88-.23-.27-.15-.48-.36-.64-.61-.16-.26-.23-.56-.23-.9,0-.5.17-.91.51-1.24.34-.33.75-.5,1.24-.5s.93.16,1.28.49c.35.33.52.74.52,1.23s-.17.93-.52,1.26c-.35.33-.77.5-1.28.5Z"/>
      <path class="cls-1" d="M313.22,175.73c-1.02,0-1.8-.07-2.34-.22-.54-.15-.97-.29-1.28-.44l.82-2.35h.34c.24.15.53.3.86.45s.69.29,1.07.39c.38.11.78.16,1.18.15,1.02-.03,1.8-.12,2.34-.26.54-.15.98-.41,1.34-.79.19-.2.35-.53.49-.96.14-.44.27-.95.39-1.53.12-.58.25-1.18.37-1.8l.44-2.03-.03.03c-.67.77-1.31,1.32-1.93,1.67-.61.34-1.16.55-1.65.64s-.88.12-1.18.12c-.98,0-1.81-.24-2.49-.73-.68-.49-1.19-1.15-1.53-1.99-.35-.84-.52-1.78-.52-2.83,0-1.16.19-2.29.57-3.39.38-1.1.92-2.1,1.62-2.99.7-.89,1.54-1.6,2.51-2.13.97-.53,2.05-.79,3.25-.79.82,0,1.49.14,2.02.43.53.29.95.62,1.25.99l.76-1.3h2.7c-.13.28-.3.72-.53,1.32-.23.6-.4,1.16-.5,1.69l-2.16,11.25c-.23,1.22-.59,2.23-1.07,3.04-.48.81-1.07,1.5-1.76,2.07-.82.68-1.65,1.23-2.51,1.66-.85.42-1.79.64-2.83.64ZM316.01,167.09c.43,0,.96-.12,1.61-.35.64-.23,1.22-.64,1.72-1.21l1.88-9.36c-.25-.16-.59-.28-1.02-.37s-.84-.15-1.26-.19c-.42-.04-.74-.06-.96-.06-.9,0-1.68.22-2.34.66-.67.44-1.22,1.02-1.66,1.74s-.77,1.5-.99,2.34c-.22.85-.33,1.67-.33,2.47s.11,1.54.33,2.19c.22.65.57,1.17,1.07,1.56s1.14.58,1.95.58Z"/>
      <path class="cls-1" d="M335.93,169c-.47,0-.87-.1-1.2-.3-.33-.2-.59-.45-.77-.74-.18-.3-.27-.59-.27-.88,0-.21.03-.52.09-.92.06-.4.13-.78.22-1.15l1.08-4.59c.11-.43.21-.89.31-1.38.1-.49.15-.93.15-1.31,0-.64-.2-1.14-.6-1.5s-1.05-.53-1.94-.53c-.55,0-1.15.11-1.83.34-.67.22-1.26.6-1.75,1.13l-1.97,8.88c-.08.46-.12.96-.13,1.5,0,.54-.01.96-.01,1.26h-2.97l2.59-11.69c.05-.24.02-.45-.09-.61-.11-.16-.31-.31-.59-.42l-1.31-.51v-.51l4.98-.98-.44,2.32h.03c.69-.79,1.33-1.35,1.91-1.69.58-.34,1.13-.55,1.66-.63.53-.08,1.04-.12,1.55-.12.98,0,1.82.26,2.5.79s1.02,1.35,1.02,2.48c0,.24-.02.5-.05.77s-.08.53-.14.77l-1.15,4.88c-.13.56-.24,1.12-.33,1.7-.09.58-.14.95-.14,1.1,0,.21.11.46.33.73.22.27.58.41,1.07.41.13,0,.35-.04.68-.12s.61-.18.85-.29h.26v.76c-.33.2-.73.39-1.19.55s-.91.28-1.34.37c-.43.09-.79.13-1.06.13Z"/>
      <path class="cls-1" d="M343.63,168.79l.18-.76,1.84-.45c.19-.05.37-.15.53-.29.16-.15.26-.33.31-.54l3.59-16.19c.05-.22.03-.41-.07-.56-.09-.15-.23-.25-.4-.29l-2-.44.16-.76h14.99l-1.07,4.78h-.95l-.28-3.04c-.02-.16-.06-.28-.12-.38-.06-.1-.18-.15-.36-.15h-7.06l-3.8,17.02c-.04.21,0,.4.09.56.1.16.24.25.42.28l2.22.45-.17.76h-8.05ZM350.63,159.07l.26-1.21h5.01c.19,0,.35-.05.45-.15.11-.1.2-.21.28-.35l1.33-2.45h.8l-1.58,7.11h-.82l-.23-2.44c-.02-.15-.06-.27-.12-.37-.06-.1-.19-.15-.39-.15h-5Z"/>
      <path class="cls-1" d="M363.17,169c-.49,0-.9-.1-1.24-.3-.34-.2-.6-.45-.78-.74-.18-.3-.27-.59-.27-.88,0-.32.03-.65.1-.99.06-.34.13-.71.21-1.1l1.69-7.79c.06-.26.04-.48-.06-.66-.1-.17-.28-.32-.56-.42l-1.37-.56v-.51l5.17-.98-1.94,8.85c-.06.27-.12.58-.2.94-.07.35-.14.7-.21,1.06-.07.36-.12.67-.17.94s-.07.47-.07.6c0,.2.12.44.35.71.23.27.59.4,1.08.4.13,0,.39-.04.79-.13.4-.09.72-.18.96-.29h.26v.76c-.33.21-.73.4-1.2.57s-.93.29-1.39.39c-.46.09-.85.14-1.17.14ZM365.59,150.64c-.32,0-.62-.07-.88-.23-.27-.15-.48-.36-.64-.61-.16-.26-.23-.56-.23-.9,0-.5.17-.91.51-1.24.34-.33.75-.5,1.24-.5s.93.16,1.28.49c.35.33.52.74.52,1.23s-.17.93-.52,1.26c-.35.33-.77.5-1.28.5Z"/>
      <path class="cls-1" d="M370.01,168.79h-2.98l2.19-10.45c.05-.21.08-.45.11-.69.02-.25.04-.44.04-.58,0-.26-.03-.47-.13-.61-.1-.15-.29-.28-.57-.39l-1.3-.51v-.51l5-.98-.6,3.24h.03c.46-.54.95-1.06,1.49-1.57.54-.51,1.11-.94,1.72-1.28.61-.34,1.26-.51,1.93-.51.56,0,.96.04,1.23.13.26.09.55.2.86.35l-.66,3.46h-.98l-.18-1.21c-.03-.19-.22-.34-.58-.44-.36-.1-.67-.15-.96-.15-.48,0-.94.09-1.38.26-.44.17-.87.41-1.29.72-.41.31-.83.68-1.25,1.12l-1.65,7.84c-.03.22-.05.52-.07.88-.01.36-.02.71-.03,1.06,0,.35,0,.62,0,.83Z"/>
      <path class="cls-1" d="M378.14,168.79l2.6-11.69c.05-.24.01-.45-.1-.61-.12-.16-.32-.31-.6-.42l-1.3-.51v-.51l5.01-.98-.45,2.32h.03c.68-.71,1.31-1.24,1.88-1.58.57-.34,1.11-.57,1.61-.69.5-.12.98-.18,1.44-.18.82,0,1.48.13,1.99.4.51.27.89.64,1.15,1.12.26.48.42,1.05.47,1.7l-1.97,8.85c-.09.42-.14.91-.15,1.48,0,.57-.01.99-.01,1.29h-2.95l2.04-9.16c.08-.35.14-.7.2-1.05.05-.35.08-.65.08-.93,0-.62-.18-1.11-.55-1.45s-.98-.52-1.83-.52c-.55,0-1.14.11-1.78.34-.64.22-1.21.6-1.71,1.13l-1.99,8.88c-.08.42-.12.91-.13,1.48,0,.57-.01.99-.01,1.29h-2.95ZM398.13,169c-.48,0-.88-.1-1.21-.3-.33-.2-.58-.45-.76-.74-.18-.3-.26-.59-.26-.88,0-.21.03-.52.08-.91.05-.39.12-.78.21-1.17l1.27-5.36c.08-.35.14-.69.19-1.02s.07-.63.07-.9c0-.63-.19-1.13-.56-1.49-.38-.36-.99-.54-1.85-.54-.54,0-1.14.13-1.82.38s-1.28.69-1.8,1.3l-.18-.41c.81-.95,1.53-1.63,2.16-2.05s1.2-.68,1.72-.8c.51-.11.99-.17,1.44-.17.98,0,1.81.27,2.48.8.67.54,1.01,1.38,1.01,2.53,0,.22-.02.47-.05.72-.03.26-.08.51-.14.77l-.94,4.03c-.1.42-.2.88-.31,1.4-.11.51-.2.98-.27,1.4-.07.42-.11.71-.11.85,0,.21.11.46.34.73.22.27.58.41,1.07.41.13,0,.36-.04.69-.12.33-.08.62-.18.86-.29h.26v.76c-.34.2-.74.39-1.2.55-.46.16-.91.28-1.34.37s-.78.13-1.04.13Z"/>
      <path class="cls-1" d="M412.9,146.87h1.59v28.02h-1.59v-28.02Z"/>
      <path class="cls-1" d="M430.95,169.26c-.94,0-2.01-.16-3.19-.48s-2.26-.66-3.24-1.02l1.07-5.23h.93l.19,2.97c.02.19.12.38.3.56.18.18.41.36.68.53.43.26.92.5,1.48.7s1.09.37,1.6.48.88.17,1.13.17c.94,0,1.8-.17,2.56-.53.76-.35,1.37-.85,1.82-1.51.45-.66.67-1.44.67-2.36,0-.73-.19-1.34-.58-1.82-.39-.48-.93-.89-1.62-1.23-.7-.34-1.38-.65-2.03-.92s-1.32-.57-2-.91c-.61-.28-1.16-.63-1.63-1.05-.47-.42-.84-.9-1.1-1.44-.26-.54-.39-1.13-.39-1.77,0-.88.2-1.7.6-2.46s.95-1.44,1.65-2.02c.7-.58,1.51-1.03,2.41-1.37.91-.33,1.86-.5,2.88-.5s2.06.13,3.1.39c1.05.26,1.96.53,2.73.81l-.98,4.83h-.93l-.31-2.76c-.02-.21-.16-.43-.43-.64-.27-.21-.59-.41-.97-.59-.3-.15-.63-.27-.97-.38s-.68-.19-1.02-.26c-.33-.06-.63-.09-.91-.09-1.29,0-2.32.37-3.09,1.11s-1.16,1.69-1.16,2.86c0,.67.16,1.3.5,1.87.33.58.94,1.06,1.83,1.46.66.29,1.31.57,1.95.85.64.27,1.33.6,2.07.98.51.25,1,.56,1.47.91.47.36.87.79,1.18,1.31.32.52.47,1.16.47,1.93,0,.86-.19,1.68-.58,2.47s-.94,1.5-1.68,2.12c-.73.62-1.64,1.12-2.72,1.48s-2.32.54-3.73.54Z"/>
      <path class="cls-1" d="M444.19,169.06c-.9,0-1.64-.21-2.23-.63-.59-.42-.88-.99-.88-1.71,0-.18.03-.42.09-.73.06-.31.12-.64.2-.99.07-.35.13-.64.18-.88l1.81-8.47h-2.38v-.77c.62-.08,1.15-.18,1.59-.31.43-.13.79-.35,1.07-.65.28-.3.49-.75.65-1.34l.48-1.81,2.25-.47-2.76,12.84c-.04.21-.1.5-.18.85s-.15.71-.21,1.07c-.06.36-.09.63-.09.81,0,.35.13.63.38.85.25.22.55.38.88.47.33.1.62.15.88.15.18,0,.44-.03.75-.09.32-.06.63-.14.94-.23.31-.09.54-.17.69-.23h.25v.74c-.19.13-.53.31-1.02.56s-1.02.47-1.61.67c-.59.2-1.16.3-1.71.3ZM445.63,155.65l.28-1.2h5.01l-.29,1.2h-5Z"/>
      <path class="cls-1" d="M453.81,169.06c-1.01,0-1.86-.26-2.54-.77s-1.02-1.35-1.02-2.5c0-.22.01-.46.04-.72.03-.26.07-.53.13-.81l1.53-7.13c.05-.24.03-.45-.06-.62-.09-.17-.27-.31-.56-.43l-1.3-.51v-.51l5.14-.98-2.07,9.34c-.07.33-.13.67-.18,1.01-.05.34-.08.64-.08.91,0,.64.2,1.14.59,1.49s1.04.53,1.92.53c.56,0,1.18-.11,1.85-.34.67-.22,1.27-.59,1.78-1.11l1.94-8.79c.09-.4.13-.88.14-1.45,0-.57,0-1.01,0-1.31h2.95l-2.05,9.32c-.12.53-.22,1.06-.32,1.59-.1.54-.15.92-.15,1.14s.11.47.33.77c.22.3.57.45,1.06.45.13,0,.37-.04.72-.12s.65-.18.89-.29h.26v.76c-.51.31-1.09.57-1.75.76-.66.19-1.29.29-1.91.29-.51,0-.91-.12-1.22-.37-.31-.25-.53-.56-.67-.92-.14-.37-.24-.72-.29-1.07h-.03c-.69.79-1.35,1.35-1.97,1.69-.62.34-1.2.54-1.73.62-.53.08-1,.12-1.41.12Z"/>
      <path class="cls-1" d="M470.62,167.38c.43,0,.94-.12,1.54-.37.6-.25,1.13-.63,1.59-1.15l2.35-10.65,1.18-5.52c.06-.26.04-.47-.06-.63-.1-.16-.28-.29-.56-.41l-1.36-.54v-.51l5.13-.96-3.48,15.97c-.1.44-.2.91-.31,1.42s-.2.98-.28,1.4-.12.74-.12.96.11.47.33.77c.22.3.57.45,1.06.45.14,0,.38-.04.72-.12.35-.08.64-.18.88-.29h.26v.76c-.51.31-1.09.57-1.75.76-.66.19-1.29.29-1.89.29-.51,0-.91-.12-1.21-.36-.3-.24-.53-.54-.68-.91-.15-.37-.25-.74-.3-1.11h-.03c-.59.67-1.14,1.18-1.64,1.53-.5.35-.98.59-1.45.72-.47.13-.96.19-1.49.19-.97,0-1.8-.24-2.49-.71s-1.21-1.12-1.56-1.95-.53-1.77-.53-2.83c0-1.18.19-2.34.56-3.47.38-1.14.91-2.17,1.61-3.1.7-.93,1.53-1.67,2.51-2.22s2.08-.83,3.29-.83c.62,0,1.29.13,2.01.38.72.25,1.26.63,1.64,1.12l-.17.72c-.23-.15-.54-.26-.91-.35s-.77-.16-1.19-.2c-.42-.05-.82-.07-1.2-.07-.92,0-1.71.23-2.39.68-.68.45-1.24,1.06-1.68,1.81s-.77,1.59-.99,2.49c-.22.91-.33,1.81-.33,2.72,0,.78.12,1.48.35,2.11.23.63.6,1.12,1.1,1.48.5.36,1.14.54,1.91.54Z"/>
      <path class="cls-1" d="M482.59,169c-.49,0-.9-.1-1.24-.3-.34-.2-.6-.45-.78-.74-.18-.3-.27-.59-.27-.88,0-.32.03-.65.1-.99.06-.34.13-.71.21-1.1l1.69-7.79c.06-.26.04-.48-.06-.66-.1-.17-.28-.32-.56-.42l-1.37-.56v-.51l5.17-.98-1.94,8.85c-.06.27-.12.58-.2.94-.07.35-.14.7-.21,1.06-.07.36-.12.67-.17.94s-.07.47-.07.6c0,.2.12.44.35.71.23.27.59.4,1.08.4.13,0,.39-.04.79-.13.4-.09.72-.18.96-.29h.26v.76c-.33.21-.73.4-1.2.57s-.93.29-1.39.39c-.46.09-.85.14-1.17.14ZM485.02,150.64c-.32,0-.62-.07-.88-.23-.27-.15-.48-.36-.64-.61-.16-.26-.23-.56-.23-.9,0-.5.17-.91.51-1.24.34-.33.75-.5,1.24-.5s.93.16,1.28.49c.35.33.52.74.52,1.23s-.17.93-.52,1.26c-.35.33-.77.5-1.28.5Z"/>
      <path class="cls-1" d="M491.82,169.17c-1.2,0-2.22-.25-3.07-.74-.85-.49-1.5-1.18-1.96-2.07-.45-.89-.68-1.94-.68-3.15s.2-2.42.59-3.53c.39-1.11.95-2.09,1.66-2.95.71-.86,1.54-1.53,2.5-2.03.95-.5,1.99-.74,3.11-.74,1.34,0,2.43.28,3.27.83s1.45,1.28,1.83,2.19c.38.91.58,1.91.58,3,0,1.22-.2,2.38-.6,3.48-.4,1.11-.95,2.09-1.66,2.94-.71.86-1.53,1.53-2.48,2.03-.95.5-1.98.74-3.09.74ZM491.99,168.11c.64,0,1.22-.17,1.74-.52s.97-.81,1.37-1.4.73-1.25,1-1.99c.27-.74.47-1.5.61-2.29.14-.79.21-1.55.21-2.28,0-.85-.09-1.62-.28-2.32-.19-.7-.52-1.25-.98-1.67-.46-.41-1.1-.62-1.91-.62-.67,0-1.28.19-1.81.56-.54.37-1,.86-1.4,1.48-.39.61-.72,1.3-.97,2.05-.25.76-.44,1.52-.57,2.29-.13.77-.19,1.49-.19,2.15,0,.79.09,1.53.27,2.23.18.7.5,1.26.96,1.7.46.43,1.11.65,1.94.65Z"/>
    </g>
  </g>
</svg>