<?xml version="1.0" encoding="UTF-8"?>
<svg id="Layer_1" data-name="Layer 1" xmlns="http://www.w3.org/2000/svg" version="1.1" viewBox="0 0 148.53 178.05">
  <defs>
    <style>
      .cls-1 {
        fill: #231f20;
        stroke-width: 0px;
      }
    </style>
  </defs>
  <path class="cls-1" d="M38.22,75.21V20.61H5.68v136.8h32.54v-54.59h-2.56v2.79c0,1.42-1.14,2.56-2.56,2.56h-8.71c-1.42,0-2.56-1.14-2.56-2.56v-33.2c0-1.39,1.14-2.54,2.56-2.54h8.71c1.42,0,2.56,1.15,2.56,2.54v2.79h2.56Z"/>
  <path class="cls-1" d="M111.1,39.65c-6.96-7.05-15.53-12.13-25.74-15.26l-20.33,38.1c1.3-.39,2.74-.18,3.88.64l31.34,22.26c.62.44,1.09,1.01,1.39,1.64h-34.49c-.7-1.21-1.99-2.04-3.48-2.04-2.23,0-4.03,1.81-4.03,4.03s1.81,4.03,4.03,4.03c1.49,0,2.79-.83,3.48-2.04h34.49c-.31.62-.77,1.2-1.39,1.64l-31.34,22.28c-1.23.87-2.81,1.05-4.18.51l20.71,38.39c10.33-3.01,18.95-7.96,25.85-14.86,12.57-12.37,18.84-29.05,18.84-49.66s-6.27-37.1-19.02-49.66Z"/>
  <path class="cls-1" d="M63.1,63.52h0s21.07-39.48,21.07-39.48c-7.94-2.3-16.81-3.42-26.67-3.42h-18.06v54.59h5.01l18.63-11.69h.01Z"/>
  <path class="cls-1" d="M62.71,114.3h-.01s-18.24-11.47-18.24-11.47h-5.01v54.59h18.27c9.82,0,18.66-1.08,26.53-3.24l-21.53-39.88Z"/>
  <path class="cls-1" d="M142.09,129.92c1.86.18,3.32,1.74,3.32,3.65,0,.98-.38,1.91-1.08,2.61s-1.62,1.07-2.6,1.07-1.91-.38-2.61-1.07c-.7-.7-1.08-1.63-1.08-2.61s.38-1.92,1.08-2.61c.6-.6,1.39-.95,2.25-1.04v-27.99c-5.94,37.23-36.8,66.23-74.87,69.34v6.79h-13.62v-6.11H0v-1.39h52.87v-6.11h13.62v5.47c39.44-3.29,70.97-34.81,74.25-74.25h-5.82v-13.61h5.82c-3.28-39.45-34.81-70.96-74.25-74.25v5.83h-13.62v-5.84H0v-1.38h52.87V0h13.62v6.43c38.08,3.12,68.93,32.12,74.87,69.34v-27.64c-1.86-.18-3.33-1.74-3.33-3.65,0-1.02.41-1.94,1.08-2.61.67-.66,1.59-1.08,2.61-1.08,2.03,0,3.68,1.66,3.68,3.69,0,1.91-1.46,3.46-3.32,3.65v33.91h6.44v13.61h-6.44v34.27Z"/>
  <line class="cls-1" x1="39.44" y1="20.61" x2="38.22" y2="20.61"/>
</svg>